<svg viewBox="0 0 168 168" xmlns="http://www.w3.org/2000/svg" focusable="false" aria-hidden="true"><path d="M133.562 74.472c-26.994-16.031-71.52-17.505-97.289-9.684-4.139 1.256-8.515-1.08-9.769-5.218a7.836 7.836 0 0 1 5.221-9.772C61.306 40.819 110.481 42.553 141.557 61a7.833 7.833 0 0 1 2.737 10.733c-2.208 3.722-7.019 4.949-10.732 2.739Zm-.884 23.744c-1.894 3.073-5.912 4.037-8.981 2.15-22.505-13.833-56.822-17.841-83.447-9.759a6.539 6.539 0 0 1-8.148-4.35 6.538 6.538 0 0 1 4.354-8.142c30.415-9.23 68.226-4.76 94.074 11.125 3.069 1.89 4.035 5.91 2.148 8.976Zm-10.247 22.803a5.215 5.215 0 0 1-7.177 1.737c-19.665-12.019-44.417-14.733-73.567-8.075a5.218 5.218 0 0 1-6.25-3.925 5.214 5.214 0 0 1 3.926-6.249c31.9-7.292 59.263-4.154 81.336 9.334a5.22 5.22 0 0 1 1.732 7.178ZM84.025.232C37.776.232.282 37.725.282 83.974c0 46.254 37.494 83.744 83.743 83.744 46.251 0 83.743-37.49 83.743-83.744 0-46.249-37.492-83.742-83.743-83.742Z" fill="currentColor"/></svg>